<?xml version="1.0" standalone="no"?>
<!DOCTYPE svg PUBLIC "-//W3C//DTD SVG 20010904//EN"
 "http://www.w3.org/TR/2001/REC-SVG-20010904/DTD/svg10.dtd">
<svg version="1.0" xmlns="http://www.w3.org/2000/svg"
 width="36.000000pt" height="48.000000pt" viewBox="0 0 36.000000 48.000000"
 preserveAspectRatio="xMidYMid meet">

<g transform="translate(0.000000,48.000000) scale(0.100000,-0.100000)"
fill="#000000" stroke="none">
<path d="M154 455 c-32 -48 -30 -107 5 -180 33 -68 34 -91 5 -102 -34 -13 -49
11 -54 83 -4 60 -8 69 -25 69 -11 0 -31 -17 -49 -43 -59 -83 -35 -200 52 -254
78 -48 194 -21 241 55 53 86 37 167 -53 263 -34 38 -67 82 -73 98 -12 39 -28
43 -49 11z m95 -121 c65 -69 86 -116 78 -175 -19 -145 -219 -175 -282 -43 -21
44 -16 111 11 151 l19 28 6 -56 c7 -66 13 -77 45 -89 33 -13 72 4 85 37 8 22
5 35 -17 77 -38 73 -44 100 -32 143 10 36 11 37 19 14 5 -13 36 -52 68 -87z"/>
</g>
</svg>
